<svg width="200" height="64" viewBox="0 0 200 64" fill="none" role="img" aria-label="orrery" xmlns="http://www.w3.org/2000/svg">
  <!-- Mark: an orrery — orbit ring, arm carrying the agent-planet (coral, the single accent), drive hub -->
  <g stroke="#f1f1f3" stroke-width="5.5" stroke-linecap="round" stroke-linejoin="round">
    <path d="M24 32l12-12"/>
    <circle cx="24" cy="32" r="17"/>
  </g>
  <circle cx="24" cy="32" r="4.5" fill="#f1f1f3"/>
  <circle cx="36" cy="20" r="7" fill="#ff8d7e"/>
  <!-- Wordmark: "orrery", monoline geometric, drawn as paths (no font dependence) -->
  <g stroke="#f1f1f3" stroke-width="5.5" stroke-linecap="round" stroke-linejoin="round">
    <circle cx="71" cy="32" r="11"/>
    <path d="M90 21v22"/>
    <path d="M90 31a10 10 0 0 1 10-10"/>
    <path d="M108 21v22"/>
    <path d="M108 31a10 10 0 0 1 10-10"/>
    <path d="M126 32h22"/>
    <path d="M148 32a11 11 0 1 0-3.93 8.43"/>
    <path d="M156 21v22"/>
    <path d="M156 31a10 10 0 0 1 10-10"/>
    <path d="M174 21l8.45 22"/>
    <path d="M191 21l-11.67 30"/>
  </g>
</svg>
